<svg xmlns="http://www.w3.org/2000/svg" width="400" height="400" viewBox="0 0 400 400">
  <!-- Background circle -->
  <circle cx="200" cy="200" r="190" fill="#f8e8e8"/>
  
  <!-- Person silhouette -->
  <path d="M200,100 C230,100 260,130 260,180 C260,230 230,260 200,260 C170,260 140,230 140,180 C140,130 170,100 200,100 Z" fill="#ff6b6b"/>
  <path d="M120,300 C120,240 170,260 200,260 C230,260 280,240 280,300 L120,300 Z" fill="#ff6b6b"/>
  
  <!-- Decorative elements -->
  <circle cx="150" cy="150" r="10" fill="#ffffff"/>
  <circle cx="250" cy="150" r="10" fill="#ffffff"/>
  <path d="M180,200 Q200,220 220,200" stroke="#ffffff" stroke-width="5" fill="none"/>
  
  <!-- Decorative border -->
  <circle cx="200" cy="200" r="190" fill="none" stroke="#ff9e9e" stroke-width="10"/>
  
  <!-- Text at bottom -->
  <text x="200" y="350" font-family="Arial" font-size="24" text-anchor="middle" fill="#d63031">Ayushi</text>
</svg>