<svg xmlns="http://www.w3.org/2000/svg" viewBox="0 0 1920 1080" width="1920" height="1080">
  <!-- Friendship card background -->
  <defs>
    <!-- Gradient backgrounds -->
    <linearGradient id="bg-gradient" x1="0%" y1="0%" x2="100%" y2="100%">
      <stop offset="0%" stop-color="#a1c4fd" />
      <stop offset="100%" stop-color="#c2e9fb" />
    </linearGradient>
    
    <!-- Pattern for background -->
    <pattern id="dots-pattern" x="0" y="0" width="40" height="40" patternUnits="userSpaceOnUse">
      <circle cx="20" cy="20" r="3" fill="#4a90e2" opacity="0.2"/>
    </pattern>
  </defs>
  
  <!-- Background -->
  <rect x="0" y="0" width="1920" height="1080" fill="url(#bg-gradient)"/>
  <rect x="0" y="0" width="1920" height="1080" fill="url(#dots-pattern)"/>
  
  <!-- Decorative elements -->
  <circle cx="300" cy="300" r="200" fill="#ffffff" opacity="0.1"/>
  <circle cx="1620" cy="780" r="250" fill="#ffffff" opacity="0.1"/>
  <circle cx="1500" cy="200" r="150" fill="#ffffff" opacity="0.1"/>
  <circle cx="400" cy="700" r="180" fill="#ffffff" opacity="0.1"/>
  
  <!-- Friendship symbols -->
  <!-- Intertwined rings -->
  <circle cx="960" cy="400" r="100" stroke="#4a90e2" stroke-width="20" fill="none" opacity="0.3"/>
  <circle cx="1040" cy="400" r="100" stroke="#06D6A0" stroke-width="20" fill="none" opacity="0.3"/>
  
  <!-- Decorative lines -->
  <line x1="200" y1="200" x2="400" y2="200" stroke="#4a90e2" stroke-width="10" stroke-linecap="round" opacity="0.2"/>
  <line x1="1520" y1="880" x2="1720" y2="880" stroke="#4a90e2" stroke-width="10" stroke-linecap="round" opacity="0.2"/>
  <line x1="300" y1="250" x2="300" y2="150" stroke="#4a90e2" stroke-width="10" stroke-linecap="round" opacity="0.2"/>
  <line x1="1620" y1="930" x2="1620" y2="830" stroke="#4a90e2" stroke-width="10" stroke-linecap="round" opacity="0.2"/>
  
  <!-- Small decorative elements -->
  <path d="M200,600 Q220,580 240,600 T280,600 Q260,630 240,660 T200,600" fill="#4a90e2" opacity="0.2"/>
  <path d="M1700,400 Q1720,380 1740,400 T1780,400 Q1760,430 1740,460 T1700,400" fill="#4a90e2" opacity="0.2"/>
  <path d="M800,800 Q820,780 840,800 T880,800 Q860,830 840,860 T800,800" fill="#4a90e2" opacity="0.2"/>
  <path d="M1200,200 Q1220,180 1240,200 T1280,200 Q1260,230 1240,260 T1200,200" fill="#4a90e2" opacity="0.2"/>
  
  <!-- Floating bubbles/circles -->
  <circle cx="500" cy="500" r="15" fill="#4a90e2" opacity="0.3"/>
  <circle cx="550" cy="550" r="8" fill="#4a90e2" opacity="0.3"/>
  <circle cx="600" cy="480" r="12" fill="#4a90e2" opacity="0.3"/>
  
  <circle cx="1300" cy="600" r="15" fill="#4a90e2" opacity="0.3"/>
  <circle cx="1350" cy="650" r="8" fill="#4a90e2" opacity="0.3"/>
  <circle cx="1400" cy="580" r="12" fill="#4a90e2" opacity="0.3"/>
  
  <!-- Confetti-like elements -->
  <rect x="700" y="300" width="15" height="15" fill="#FFD166" opacity="0.3" transform="rotate(30 700 300)"/>
  <rect x="750" y="320" width="10" height="10" fill="#06D6A0" opacity="0.3" transform="rotate(45 750 320)"/>
  <rect x="720" y="350" width="12" height="12" fill="#4a90e2" opacity="0.3" transform="rotate(15 720 350)"/>
  
  <rect x="1100" y="700" width="15" height="15" fill="#FFD166" opacity="0.3" transform="rotate(30 1100 700)"/>
  <rect x="1150" y="720" width="10" height="10" fill="#06D6A0" opacity="0.3" transform="rotate(45 1150 720)"/>
  <rect x="1120" y="750" width="12" height="12" fill="#4a90e2" opacity="0.3" transform="rotate(15 1120 750)"/>
</svg>