<svg xmlns="http://www.w3.org/2000/svg" viewBox="0 0 1920 1080" width="1920" height="1080">
  <!-- Friendship background -->
  <defs>
    <!-- Gradient backgrounds -->
    <linearGradient id="bg-gradient" x1="0%" y1="0%" x2="100%" y2="100%">
      <stop offset="0%" stop-color="#ff9a9e" />
      <stop offset="100%" stop-color="#fad0c4" />
    </linearGradient>
    
    <!-- Pattern for background -->
    <pattern id="hearts-pattern" x="0" y="0" width="100" height="100" patternUnits="userSpaceOnUse">
      <path d="M25,25 Q40,10 55,25 T85,25 Q70,45 55,65 T25,25" fill="#ff6b6b" opacity="0.1"/>
    </pattern>
  </defs>
  
  <!-- Background -->
  <rect x="0" y="0" width="1920" height="1080" fill="url(#bg-gradient)"/>
  <rect x="0" y="0" width="1920" height="1080" fill="url(#hearts-pattern)"/>
  
  <!-- Decorative elements -->
  <circle cx="200" cy="200" r="100" fill="#ffffff" opacity="0.1"/>
  <circle cx="1720" cy="880" r="150" fill="#ffffff" opacity="0.1"/>
  <circle cx="1600" cy="300" r="80" fill="#ffffff" opacity="0.1"/>
  <circle cx="300" cy="800" r="120" fill="#ffffff" opacity="0.1"/>
  
  <!-- Friendship symbols -->
  <!-- Large heart -->
  <path d="M960,300 Q1060,200 1160,300 T1360,300 Q1260,450 1160,600 T960,300" fill="#ffffff" opacity="0.2"/>
  
  <!-- Friendship bracelets -->
  <path d="M400,400 C500,350 600,450 700,400" stroke="#FFD166" stroke-width="15" stroke-linecap="round" fill="none" opacity="0.6"/>
  <path d="M400,430 C500,380 600,480 700,430" stroke="#06D6A0" stroke-width="15" stroke-linecap="round" fill="none" opacity="0.6"/>
  <path d="M400,460 C500,410 600,510 700,460" stroke="#4A90E2" stroke-width="15" stroke-linecap="round" fill="none" opacity="0.6"/>
  
  <!-- Friendship bracelets on the other side -->
  <path d="M1220,700 C1320,650 1420,750 1520,700" stroke="#FFD166" stroke-width="15" stroke-linecap="round" fill="none" opacity="0.6"/>
  <path d="M1220,730 C1320,680 1420,780 1520,730" stroke="#06D6A0" stroke-width="15" stroke-linecap="round" fill="none" opacity="0.6"/>
  <path d="M1220,760 C1320,710 1420,810 1520,760" stroke="#4A90E2" stroke-width="15" stroke-linecap="round" fill="none" opacity="0.6"/>
  
  <!-- Small decorative hearts -->
  <path d="M300,200 Q320,180 340,200 T380,200 Q360,230 340,260 T300,200" fill="#ffffff" opacity="0.3"/>
  <path d="M1600,800 Q1620,780 1640,800 T1680,800 Q1660,830 1640,860 T1600,800" fill="#ffffff" opacity="0.3"/>
  <path d="M800,900 Q820,880 840,900 T880,900 Q860,930 840,960 T800,900" fill="#ffffff" opacity="0.3"/>
  <path d="M1400,200 Q1420,180 1440,200 T1480,200 Q1460,230 1440,260 T1400,200" fill="#ffffff" opacity="0.3"/>
  
  <!-- Floating bubbles/circles -->
  <circle cx="500" cy="600" r="20" fill="#ffffff" opacity="0.4"/>
  <circle cx="550" cy="650" r="10" fill="#ffffff" opacity="0.4"/>
  <circle cx="600" cy="580" r="15" fill="#ffffff" opacity="0.4"/>
  
  <circle cx="1300" cy="400" r="20" fill="#ffffff" opacity="0.4"/>
  <circle cx="1350" cy="450" r="10" fill="#ffffff" opacity="0.4"/>
  <circle cx="1400" cy="380" r="15" fill="#ffffff" opacity="0.4"/>
</svg>